# Blender v3.0.1 OBJ File: 'trafik_işeretleri.blend'
# www.blender.org
mtllib trafik_işareti_üçgen.mtl
o Plane.001_Plane.005
v -0.838917 1.248949 0.108209
v -0.883153 1.355745 0.108209
v -0.874368 1.252588 0.108209
v -0.900125 1.263257 0.108209
v -0.914433 1.280229 0.108209
v -0.916317 1.302347 0.108209
v -0.905648 1.328104 0.108209
v 0.106796 2.132102 0.108209
v -0.106796 2.132102 0.108209
v 0.075516 2.156105 0.108209
v 0.039090 2.171193 0.108209
v -0.000000 2.176339 0.108209
v -0.039090 2.171193 0.108209
v -0.075516 2.156105 0.108209
v 0.883153 1.355745 0.108209
v 0.838917 1.248949 0.108209
v 0.905648 1.328104 0.108209
v 0.916317 1.302347 0.108209
v 0.914433 1.280229 0.108209
v 0.900125 1.263257 0.108209
v 0.874368 1.252588 0.108209
v -0.883153 1.355745 0.130522
v -0.106796 2.132102 0.130522
v -0.075516 2.156105 0.130522
v -0.039090 2.171193 0.130522
v -0.000000 2.176339 0.130522
v 0.039090 2.171193 0.130522
v 0.075516 2.156105 0.130522
v 0.106796 2.132102 0.130522
v 0.883153 1.355745 0.130522
v 0.905648 1.328104 0.130522
v 0.916317 1.302347 0.130522
v 0.914433 1.280229 0.130522
v 0.900125 1.263257 0.130522
v 0.874368 1.252588 0.130522
v 0.838917 1.248949 0.130522
v -0.838917 1.248949 0.130522
v -0.874368 1.252588 0.130522
v -0.900125 1.263257 0.130522
v -0.914433 1.280229 0.130522
v -0.916317 1.302347 0.130522
v -0.905648 1.328104 0.130522
vt 0.000000 0.000000
vt 0.000000 0.000000
vt 0.000000 0.000000
vt 0.000000 0.000000
vt 0.000000 0.000000
vt 0.000000 0.000000
vt 0.000000 0.000000
vt 0.000000 0.000000
vt 0.000000 0.000000
vt 0.000000 0.000000
vt 0.000000 0.000000
vt 0.000000 0.000000
vt 0.000000 0.000000
vt 0.000000 0.000000
vt 0.000000 0.000000
vt 0.000000 0.000000
vt 0.000000 0.000000
vt 0.000000 0.000000
vt 0.000000 0.000000
vt 0.000000 0.000000
vt 0.000000 0.000000
vt 0.000000 0.000000
vt 0.000000 0.000000
vt 0.000000 0.000000
vt 0.000000 0.000000
vt 0.000000 0.000000
vt 0.000000 0.000000
vt 0.000000 0.000000
vt 0.000000 0.000000
vt 0.000000 0.000000
vt 0.000000 0.000000
vt 0.000000 0.000000
vt 0.000000 0.000000
vt 0.000000 0.000000
vt 0.000000 0.000000
vt 0.000000 0.000000
vt 0.000000 0.000000
vt 0.000000 0.000000
vt 0.000000 0.000000
vt 0.000000 0.000000
vt 0.000000 0.000000
vt 0.000000 0.000000
vn -0.0000 -0.0000 1.0000
vn 0.0000 0.0000 -1.0000
vn -0.9964 0.0849 0.0000
vn 0.1305 -0.9914 0.0000
vn 0.9964 0.0849 0.0000
vn -0.7646 0.6446 0.0000
vn -0.1305 -0.9914 0.0000
vn 0.9239 -0.3827 0.0000
vn -0.3827 0.9239 0.0000
vn -0.3827 -0.9239 0.0000
vn 0.7756 -0.6312 0.0000
vn -0.1021 0.9948 0.0000
vn -0.6088 -0.7934 0.0000
vn 0.0000 1.0000 0.0000
vn -0.7071 -0.7071 0.0000
vn 0.7071 -0.7071 0.0000
vn 0.1021 0.9948 0.0000
vn -0.7756 -0.6312 0.0000
vn 0.6088 -0.7934 0.0000
vn 0.3827 0.9239 0.0000
vn -0.9239 -0.3827 0.0000
vn 0.3827 -0.9239 0.0000
vn 0.7646 0.6446 0.0000
usemtl None
s off
f 9/1/1 2/2/1 7/3/1 6/4/1 5/5/1 4/6/1 3/7/1 1/8/1 16/9/1 21/10/1 20/11/1 19/12/1 18/13/1 17/14/1 15/15/1 8/16/1 10/17/1 11/18/1 12/19/1 13/20/1 14/21/1
f 23/22/2 24/23/2 25/24/2 26/25/2 27/26/2 28/27/2 29/28/2 30/29/2 31/30/2 32/31/2 33/32/2 34/33/2 35/34/2 36/35/2 37/36/2 38/37/2 39/38/2 40/39/2 41/40/2 42/41/2 22/42/2
f 18/13/3 19/12/3 33/32/3 32/31/3
f 13/20/4 12/19/4 26/25/4 25/24/4
f 5/5/5 6/4/5 41/40/5 40/39/5
f 19/12/6 20/11/6 34/33/6 33/32/6
f 12/19/7 11/18/7 27/26/7 26/25/7
f 6/4/8 7/3/8 42/41/8 41/40/8
f 20/11/9 21/10/9 35/34/9 34/33/9
f 11/18/10 10/17/10 28/27/10 27/26/10
f 7/3/11 2/2/11 22/42/11 42/41/11
f 21/10/12 16/9/12 36/35/12 35/34/12
f 10/17/13 8/16/13 29/28/13 28/27/13
f 16/9/14 1/8/14 37/36/14 36/35/14
f 8/16/15 15/15/15 30/29/15 29/28/15
f 2/2/16 9/1/16 23/22/16 22/42/16
f 1/8/17 3/7/17 38/37/17 37/36/17
f 15/15/18 17/14/18 31/30/18 30/29/18
f 9/1/19 14/21/19 24/23/19 23/22/19
f 3/7/20 4/6/20 39/38/20 38/37/20
f 17/14/21 18/13/21 32/31/21 31/30/21
f 14/21/22 13/20/22 25/24/22 24/23/22
f 4/6/23 5/5/23 40/39/23 39/38/23
