# Blender v3.0.1 OBJ File: 'trafik_işeretleri.blend'
# www.blender.org
mtllib trafik_işareti_çokgen.mtl
o Circle.001_Circle
v 0.273512 2.342874 0.113218
v -0.262225 2.347549 0.113217
v -0.644353 1.972032 0.113217
v -0.649029 1.436296 0.113217
v -0.273512 1.054167 0.113217
v 0.262225 1.049491 0.113217
v 0.644353 1.425008 0.113217
v 0.649029 1.960745 0.113217
v -0.262225 2.347549 0.081677
v 0.273512 2.342874 0.081677
v -0.644353 1.972032 0.081677
v -0.649029 1.436296 0.081677
v -0.273512 1.054167 0.081677
v 0.262225 1.049491 0.081677
v 0.644353 1.425008 0.081677
v 0.649029 1.960745 0.081677
vt 0.000000 0.000000
vt 0.000000 0.000000
vt 0.000000 0.000000
vt 0.000000 0.000000
vt 0.000000 0.000000
vt 0.000000 0.000000
vt 0.000000 0.000000
vt 0.000000 0.000000
vt 0.000000 0.000000
vt 0.000000 0.000000
vt 0.000000 0.000000
vt 0.000000 0.000000
vt 0.000000 0.000000
vt 0.000000 0.000000
vt 0.000000 0.000000
vt 0.000000 0.000000
vn 0.0000 0.0000 -1.0000
vn -0.0000 -0.0000 1.0000
vn 0.7009 -0.7133 0.0000
vn -1.0000 0.0087 0.0000
vn 0.0087 1.0000 0.0000
vn 1.0000 -0.0087 0.0000
vn -0.0087 -1.0000 0.0000
vn -0.7133 -0.7009 0.0000
vn -0.7009 0.7133 0.0000
vn 0.7133 0.7009 0.0000
usemtl None
s off
f 2/1/1 1/2/1 8/3/1 7/4/1 6/5/1 5/6/1 4/7/1 3/8/1
f 9/9/2 11/10/2 12/11/2 13/12/2 14/13/2 15/14/2 16/15/2 10/16/2
f 2/1/3 3/8/3 11/10/3 9/9/3
f 7/4/4 8/3/4 16/15/4 15/14/4
f 5/6/5 6/5/5 14/13/5 13/12/5
f 3/8/6 4/7/6 12/11/6 11/10/6
f 1/2/7 2/1/7 9/9/7 10/16/7
f 8/3/8 1/2/8 10/16/8 16/15/8
f 6/5/9 7/4/9 15/14/9 14/13/9
f 4/7/10 5/6/10 13/12/10 12/11/10
